<svg xmlns="http://www.w3.org/2000/svg" viewBox="0 0 392.14 115.02"><path fill="#328b80" d="M11.95 29.77v42.71a9 9 0 0 0 1 4.22 10.69 10.69 0 0 0 2.84 3.46 13.94 13.94 0 0 0 4.19 2.31 15 15 0 0 0 5.12.85 10.64 10.64 0 0 0 3.78-.76 18.82 18.82 0 0 0 4-2.08 21.41 21.41 0 0 0 3.6-3.1 21.85 21.85 0 0 0 2.84-3.78V29.77h11.83v60H39.31V78.52a24.42 24.42 0 0 1-4 4.86 30.2 30.2 0 0 1-5.13 4 28 28 0 0 1-5.68 2.69 17.46 17.46 0 0 1-5.57 1 18.63 18.63 0 0 1-7.38-1.47 19.18 19.18 0 0 1-6-4 18.72 18.72 0 0 1-4.1-5.91A17.63 17.63 0 0 1 0 72.48V29.77ZM74.8 28.66h3.4v13.47c1.21-1.52 2.54-3.08 4-4.69a33.68 33.68 0 0 1 4.86-4.36 24.75 24.75 0 0 1 5.89-3.19 19.56 19.56 0 0 1 7-1.23 20.89 20.89 0 0 1 9.67 2.22 22.91 22.91 0 0 1 7.41 6 27.65 27.65 0 0 1 4.75 8.93 35.18 35.18 0 0 1 1.67 10.97 44.38 44.38 0 0 1-2 13.74 32.53 32.53 0 0 1-5.86 10.87 26.54 26.54 0 0 1-9.26 7.12 28.39 28.39 0 0 1-12.19 2.55 36.86 36.86 0 0 1-4.6-.27 27.52 27.52 0 0 1-4-.79 25 25 0 0 1-3.69-1.34 29.57 29.57 0 0 1-3.6-2v28.36h-12V31.95Zm3.4 44.94a11.29 11.29 0 0 0 1.17 5.06 12.88 12.88 0 0 0 3.28 4.17 15.87 15.87 0 0 0 5 2.81 19.46 19.46 0 0 0 6.44 1 12.37 12.37 0 0 0 6.36-1.69 16.15 16.15 0 0 0 5.16-4.83 25.26 25.26 0 0 0 3.46-7.47 34.35 34.35 0 0 0 1.26-9.61 50.68 50.68 0 0 0-1.18-11.57 26.89 26.89 0 0 0-3.25-8.24 14.63 14.63 0 0 0-4.92-4.92 12.33 12.33 0 0 0-6.24-1.64 15.74 15.74 0 0 0-5 .79 20 20 0 0 0-4.48 2.14 23.88 23.88 0 0 0-3.9 3.11 28.87 28.87 0 0 0-3.19 3.69ZM137.59 29.77l19 43.83 18.81-43.83 18.93 43.83 16.75-43.83h5.75l-24.5 60.64h-4l-16.76-39.2-16.81 39.2h-3.7l-26.31-60.64ZM230.73 28.66h1.81l1.59 12.29a21.52 21.52 0 0 1 3.51-5 25.7 25.7 0 0 1 4.66-3.87 23.1 23.1 0 0 1 5.39-2.55 19 19 0 0 1 5.77-.9 19.38 19.38 0 0 1 5.19.7 16 16 0 0 1 4.8 2.25l-3.75 10a11.73 11.73 0 0 0-2.46-2.08 13.11 13.11 0 0 0-2.64-1.23 12.19 12.19 0 0 0-2.75-.55c-.94-.08-1.87-.12-2.81-.12a15.41 15.41 0 0 0-4.37.64 15.82 15.82 0 0 0-7.64 5.13 20.66 20.66 0 0 0-2.87 4.6v41.8h-11.9V31.95ZM268.09 6.8a6.65 6.65 0 0 1 .52-2.64 7 7 0 0 1 1.47-2.21 6.86 6.86 0 0 1 2.17-1.42 6.82 6.82 0 0 1 5.27 0 6.81 6.81 0 0 1 3.63 3.63 6.66 6.66 0 0 1 .53 2.64 6.66 6.66 0 0 1-.53 2.64 6.9 6.9 0 0 1-3.63 3.63 6.76 6.76 0 0 1-7.44-1.47 6.84 6.84 0 0 1-1.47-2.16 6.65 6.65 0 0 1-.52-2.64Zm.93 25.25 8.43-3.39h3.46v61.11h-11.89ZM309.31 9.38h3.4v20.39h13.36v5.1h-13.36v42.24a6.4 6.4 0 0 0 .5 2.52 6.53 6.53 0 0 0 1.35 2 6 6 0 0 0 2 1.38 6.56 6.56 0 0 0 2.58.5 6.82 6.82 0 0 0 3.63-1 11.45 11.45 0 0 0 2.87-2.46l3 2a18.72 18.72 0 0 1-6.39 6.57 18.34 18.34 0 0 1-9.72 2.4 12.25 12.25 0 0 1-5.22-1 9.71 9.71 0 0 1-3.66-2.87 12.41 12.41 0 0 1-2.14-4.39 21.24 21.24 0 0 1-.7-5.66V34.87h-10.42v-2.23l10.43-2.87v-17ZM363.78 91.06a28.77 28.77 0 0 1-11.45-2.29 29.73 29.73 0 0 1-9.35-6.21 29.1 29.1 0 0 1-6.3-9.23 27.9 27.9 0 0 1-2.31-11.28 40.63 40.63 0 0 1 2.08-13.33 31.67 31.67 0 0 1 6-10.57 27.59 27.59 0 0 1 9.29-7 28.5 28.5 0 0 1 12.1-2.51 27.33 27.33 0 0 1 10.78 2.08 26.86 26.86 0 0 1 8.47 5.56 25.2 25.2 0 0 1 5.51 8.06 24.11 24.11 0 0 1 2 9.55h-44.75a38.85 38.85 0 0 0 1.6 11.21 28.29 28.29 0 0 0 4.37 8.91 20.68 20.68 0 0 0 6.63 5.86 17.53 17.53 0 0 0 8.5 2.08 22.28 22.28 0 0 0 7.44-1.26 26.48 26.48 0 0 0 6.47-3.31 23.08 23.08 0 0 0 4.95-4.69 16.22 16.22 0 0 0 2.87-5.45l3.46 1.52a27.74 27.74 0 0 1-4.16 8.67 33.59 33.59 0 0 1-6.71 7.06 32.28 32.28 0 0 1-8.35 4.78 25 25 0 0 1-9.14 1.79Zm11.84-42a16.5 16.5 0 0 0-1.2-6.32 15.41 15.41 0 0 0-8.24-8.44 14.85 14.85 0 0 0-6-1.23 11.63 11.63 0 0 0-5.16 1.2 14.35 14.35 0 0 0-4.39 3.34 18.17 18.17 0 0 0-3.2 5.07 19.3 19.3 0 0 0-1.49 6.33Z"/></svg>